<?xml version="1.0" standalone="no"?>
<!DOCTYPE svg PUBLIC "-//W3C//DTD SVG 1.1//EN" "http://www.w3.org/Graphics/SVG/1.1/DTD/svg11.dtd" >
<!--
2013-9-30: Created.
-->
<svg>
<metadata>
Created by iconfont
</metadata>
<defs>

<font id="iconfont" horiz-adv-x="1024" >
  <font-face
    font-family="iconfont"
    font-weight="500"
    font-stretch="normal"
    units-per-em="1024"
    ascent="896"
    descent="-128"
  />
    <missing-glyph />
    
    <glyph glyph-name="favor" unicode="&#58956;" d="M767.104-63.936c-5.344 0-10.688 1.344-15.52 4.032l-241.312 133.856-241.824-133.024c-10.72-5.92-23.904-5.152-33.888 1.92-10.016 7.072-15.104 19.264-13.12 31.328l46.88 284.736-196.448 202.08c-8.256 8.512-11.168 20.928-7.456 32.192 3.68 11.296 13.312 19.616 25.024 21.632l155.072 26.592c17.632 2.944 33.984-8.736 36.96-26.144 2.976-17.408-8.704-33.952-26.144-36.96l-95.168-16.32 165.344-170.08c7.072-7.296 10.272-17.504 8.64-27.488l-38.816-235.68 199.616 109.824c9.632 5.312 21.344 5.312 30.944-0.064l199.168-110.464-38.016 235.776c-1.632 10.016 1.632 20.224 8.704 27.456l164.672 168.256-225.664 34.816c-10.56 1.632-19.584 8.416-24.128 18.08l-99.2 212.384-100.064-211.84c-7.552-16-26.624-22.816-42.624-15.264-15.968 7.552-22.816 26.624-15.264 42.624l129.152 273.44c5.312 11.2 16.576 18.336 28.928 18.336 0 0 0.032 0 0.064 0 12.416-0.032 23.68-7.232 28.928-18.464l120.8-258.624 270.336-41.728c11.872-1.824 21.696-10.144 25.504-21.504 3.776-11.36 0.864-23.936-7.488-32.48l-196.928-201.216 45.92-284.864c1.952-12.096-3.2-24.256-13.216-31.296C780-62.016 773.568-63.936 767.104-63.936z"  horiz-adv-x="1024" />

    
    <glyph glyph-name="search" unicode="&#58972;" d="M953.504-12.256l-152.608 163.296c61.856 74.496 95.872 167.36 95.872 265.12 0 229.344-186.624 415.968-416.032 415.968-229.344 0-415.968-186.592-415.968-415.968s186.624-415.968 416-415.968c60.096 0.032 118.048 12.576 172.224 37.248 16.096 7.328 23.2 26.304 15.872 42.368-7.328 16.128-26.4 23.264-42.368 15.872-45.856-20.864-94.88-31.456-145.76-31.488-194.08 0-351.968 157.888-351.968 351.968 0 194.048 157.888 351.968 351.968 351.968 194.112 0 352.032-157.888 352.032-351.968 0-91.36-34.848-177.92-98.08-243.744-12.256-12.736-11.84-32.992 0.864-45.248 0.96-0.928 2.208-1.28 3.296-2.08 0.864-1.28 1.312-2.752 2.4-3.904l165.504-177.088c6.272-6.752 14.816-10.144 23.36-10.144 7.84 0 15.68 2.848 21.856 8.64C964.864-45.408 965.568-25.152 953.504-12.256z"  horiz-adv-x="1024" />

    
    <glyph glyph-name="unfold" unicode="&#58977;" d="M890.336 565.088c-12.576 12.416-32.8 12.352-45.248-0.192L517.248 234.048 184.832 563.488c-12.576 12.448-32.8 12.352-45.28-0.192-12.448-12.576-12.352-32.832 0.192-45.28l353.312-350.112c0.544-0.544 1.248-0.672 1.792-1.184 0.128-0.128 0.16-0.288 0.288-0.416 6.24-6.176 14.4-9.28 22.528-9.28 8.224 0 16.48 3.168 22.72 9.472l350.112 353.312C902.976 532.384 902.88 552.64 890.336 565.088z"  horiz-adv-x="1024" />

    
    <glyph glyph-name="deliver" unicode="&#58993;" d="M352 320 224 320c-17.664 0-32 14.304-32 32 0 17.664 14.336 32 32 32l96 0 0 96c0 17.664 14.336 32 32 32s32-14.336 32-32l0-128C384 334.304 369.664 320 352 320zM702.144 229.12c-61.952 0-113.664-43.296-127.296-101.12l-123.808 0c-13.568 57.888-65.344 101.216-127.328 101.216-72.288 0-131.104-58.784-131.104-131.072 0-72.352 58.816-131.232 131.104-131.232 60.384 0 110.848 41.344 125.984 97.056l126.432 0c15.104-55.712 65.568-96.992 126.016-96.992 72.224 0 131.008 58.784 131.008 131.072S774.368 229.12 702.144 229.12zM323.744 30.944c-36.992 0-67.104 30.144-67.104 67.232 0 36.96 30.08 67.072 67.104 67.072 36.992 0 67.072-30.08 67.072-67.072C390.816 61.088 360.736 30.944 323.744 30.944zM702.144 31.008c-36.96 0-67.072 30.08-67.072 67.072s30.08 67.072 67.072 67.072c36.928 0 67.008-30.08 67.008-67.072S739.104 31.008 702.144 31.008zM864.032 800 399.744 800C355.776 800 320 764.224 320 720.256l0-92.512L125.344 529.92c-1.376-0.704-2.72-1.504-4-2.4-36.096-25.376-56-64.96-56-111.52l0-321.984c0-17.696 14.336-32 32-32s32 14.304 32 32L129.344 416c0 25.024 9.088 44.512 27.04 57.888l209.984 105.504c1.44 0.704 2.368 1.984 3.648 2.88 1.888 1.312 3.776 2.496 5.312 4.16 1.408 1.536 2.336 3.328 3.424 5.056 1.088 1.728 2.24 3.328 2.976 5.28 0.8 2.176 1.024 4.416 1.344 6.688C383.328 605.024 384 606.4 384 608L384 720.256C384 728.928 391.072 736 399.744 736l464.288 0C881.664 736 896 721.408 896 703.488L896 96c0-17.696 14.304-32 32-32s32 14.304 32 32L960 703.488C960 756.704 916.928 800 864.032 800z"  horiz-adv-x="1024" />

    
    <glyph glyph-name="evaluate" unicode="&#58994;" d="M405.536-36.128c-8.8 0-17.568 3.584-23.904 10.688-83.232 93.216-217.856 94.112-220.64 94.112-0.096 0-0.096 0-0.192 0-17.568 0-31.904 14.176-32.032 31.744-0.128 17.664 14.016 32.064 31.648 32.256 6.656 0.352 165.664 0.192 268.96-115.488 11.776-13.184 10.624-33.408-2.56-45.184C420.736-33.44 413.12-36.128 405.536-36.128zM620.128-36.064c-7.776 0-15.584 2.816-21.76 8.544-12.96 12-13.76 32.256-1.728 45.216 106.976 115.52 262.752 115.392 268.896 115.136 17.696-0.192 31.872-14.656 31.68-32.32-0.192-17.568-14.464-31.68-32-31.68-0.096 0-0.16 0-0.256 0L864.96 68.832c-2.656 0-134.56-0.864-221.376-94.624C637.312-32.64 628.704-36.064 620.128-36.064zM563.712 126.688l-101.408 0c-3.232 0-6.368 0.48-9.344 1.408-108.256 13.888-200.256 76.704-259.552 177.44C124.576 422.528 108.8 574.112 154.208 682.752c4.896 11.68 16.224 19.392 28.896 19.648l9.632 0.096c60.96 0 117.888-11.52 169.696-34.304 37.44 68.448 80.192 120.384 127.328 154.688 2.496 2.176 5.344 4 8.512 5.344l0 0c9.888 4.288 21.376 3.36 30.432-2.528 1.568-1.024 3.04-2.176 4.384-3.456 47.264-34.688 88.832-85.856 126.464-155.744 52.832 23.872 111.072 35.968 173.632 35.968l9.792-0.096c12.672-0.256 24-7.968 28.896-19.648 45.408-108.672 29.664-260.256-39.232-377.248-59.296-100.672-151.264-163.52-259.488-177.44C570.112 127.2 566.976 126.688 563.712 126.688zM468 190.688l90.016 0c0.672 0.128 1.376 0.224 2.08 0.32 115.712 12.864 182.08 87.072 217.376 147.008 54.048 91.872 70.432 211.936 42.528 300.32-58.24-1.888-111.616-16.16-158.816-42.528-7.712-4.288-16.832-5.184-25.184-2.624-8.384 2.624-15.328 8.608-19.2 16.512-32.448 66.368-67.232 115.2-105.824 148.48-38.624-33.216-74.176-82.4-105.92-146.592-3.872-7.808-10.72-13.696-19.04-16.32-8.32-2.656-17.28-1.76-24.96 2.4C314.848 622.784 262.72 636.448 206.048 638.304c-27.904-88.384-11.52-208.448 42.528-300.288 35.296-59.936 101.632-134.112 217.312-147.008C466.592 190.912 467.296 190.816 468 190.688zM512.768-64c-17.664 0-32 14.304-32 32l0 190.688c0 17.696 14.336 32 32 32s32-14.304 32-32L544.768-32C544.736-49.696 530.432-64 512.768-64z"  horiz-adv-x="1024" />

    
    <glyph glyph-name="pay" unicode="&#58995;" d="M799.488-4.448 159.936-4.448c-52.928 0-96 43.072-96 96L63.936 670.048c0 52.928 43.072 96 96 96l642.496 0c52.928 0 96-43.072 96-96L898.432 576c0-17.664-14.304-32-32-32s-32 14.336-32 32L834.432 670.048c0 17.632-14.336 32-32 32L159.936 702.048c-17.632 0-32-14.368-32-32l0-578.496c0-17.664 14.368-32 32-32l639.552 0c17.664 0 32 14.336 32 32l0 98.944c0 17.696 14.304 32 32 32s32-14.304 32-32l0-98.944C895.488 38.624 852.448-4.448 799.488-4.448zM661.472 381.888m-31.328 0a0.979 0.979 0 1 0 62.656 0 0.979 0.979 0 1 0-62.656 0ZM896 256 576 256c-35.296 0-64 28.704-64 64l0 128c0 35.296 28.704 64 64 64l320 0c35.296 0 64-28.704 64-64l0-128C960 284.704 931.296 256 896 256zM576 448l0-128 320.064 0L896 448 576 448z"  horiz-adv-x="1024" />

    
    <glyph glyph-name="send" unicode="&#58997;" d="M287.008 384 224.992 384c-17.664 0-32 14.336-32 32s14.336 32 32 32l62.016 0c17.664 0 32-14.336 32-32S304.672 384 287.008 384zM882.624 768 141.44 768C98.72 768 64 733.312 64 690.624l0-154.624 0-8.48 0-458.016c0-38.304 31.936-69.472 71.168-69.472l753.696 0c39.264 0 71.168 31.168 71.168 69.472L960.032 527.52 960.032 690.624C960 733.312 925.28 768 882.624 768zM896 690.624l0-131.104-223.488 0L672.512 704l210.112 0C889.984 704 896 697.984 896 690.624zM446.688 704l161.824 0 0-360.448-70.784 28.224c-7.712 3.104-16.352 3.04-24-0.128l-67.04-27.52L446.688 704zM128 690.624C128 697.984 134.016 704 141.44 704l241.248 0 0-144.48L128 559.52 128 690.624zM888.832 64.032 135.168 64.032C130.944 64.032 128 66.912 128 69.504L128 495.52l254.688 0 0-199.168c0-10.656 5.312-20.64 14.176-26.592 5.344-3.552 11.552-5.408 17.824-5.408 4.096 0 8.256 0.768 12.16 2.4l99.232 40.736 102.592-40.864c9.856-3.968 21.024-2.72 29.824 3.232 8.768 5.984 14.016 15.872 14.016 26.496l0 199.168L896 495.52l0-426.016C896 66.912 893.056 64.032 888.832 64.032z"  horiz-adv-x="1024" />

    
    <glyph glyph-name="scan" unicode="&#59017;" d="M928 352 96 352c-17.664 0-32 14.336-32 32s14.336 32 32 32l832 0c17.696 0 32-14.336 32-32S945.696 352 928 352zM832-32l-192 0c-17.696 0-32 14.304-32 32s14.304 32 32 32l192 0c17.664 0 32 14.336 32 32l0 160c0 17.696 14.304 32 32 32s32-14.304 32-32l0-160C928 11.072 884.928-32 832-32zM352-32 192-32c-52.928 0-96 43.072-96 96l0 160c0 17.696 14.336 32 32 32s32-14.304 32-32l0-160c0-17.664 14.368-32 32-32l160 0c17.664 0 32-14.304 32-32S369.664-32 352-32zM128 512c-17.664 0-32 14.336-32 32L96 704c0 52.928 43.072 96 96 96l160 0c17.664 0 32-14.336 32-32s-14.336-32-32-32L192 736C174.368 736 160 721.632 160 704l0-160C160 526.336 145.664 512 128 512zM896 512c-17.696 0-32 14.336-32 32L864 704c0 17.632-14.336 32-32 32l-192 0c-17.696 0-32 14.336-32 32s14.304 32 32 32l192 0c52.928 0 96-43.072 96-96l0-160C928 526.336 913.696 512 896 512z"  horiz-adv-x="1024" />

    
    <glyph glyph-name="settings" unicode="&#59018;" d="M512 288c-52.928 0-96 43.072-96 96s43.072 96 96 96 96-43.072 96-96S564.928 288 512 288zM512 416c-17.632 0-32-14.368-32-32s14.368-32 32-32 32 14.368 32 32S529.632 416 512 416zM631.04-64c-10.016 0-19.712 4.736-25.856 13.12l-73.408 100.48c-13.664-0.832-25.92-0.864-39.584 0l-73.376-100.48c-7.904-10.816-21.728-15.616-34.656-11.872-34.592 9.888-67.488 23.456-97.76 40.32-11.712 6.528-18.112 19.648-16.032 32.896l19.2 123.264c-9.824 8.704-19.136 18.016-27.84 27.808l-123.264-19.2c-13.056-1.984-26.336 4.352-32.896 16.064-16.896 30.368-30.464 63.296-40.32 97.824-3.68 12.864 1.056 26.72 11.904 34.624l100.448 73.376C177.152 371.04 176.928 377.6 176.928 384s0.224 12.96 0.672 19.776L77.12 477.184c-10.816 7.936-15.584 21.728-11.904 34.656 9.856 34.496 23.424 67.392 40.32 97.792 6.56 11.712 19.712 18.048 32.896 16.064l123.264-19.2c8.736 9.824 18.016 19.104 27.84 27.84l-19.2 123.264C268.288 770.816 274.72 783.936 286.432 790.464c30.4 16.896 63.296 30.464 97.76 40.32 12.928 3.648 26.72-1.056 34.656-11.904l73.376-100.448c13.568 0.896 25.824 0.896 39.584 0l73.408 100.48c7.904 10.848 21.664 15.52 34.656 11.904 34.464-9.856 67.328-23.424 97.76-40.32 11.712-6.528 18.112-19.648 16.064-32.896L734.432 634.24c9.824-8.736 19.104-18.016 27.808-27.776l123.328 19.2c13.152 2.016 26.336-4.384 32.864-16.032 16.896-30.4 30.496-63.296 40.352-97.824 3.648-12.896-1.088-26.688-11.904-34.624l-100.48-73.408c0.448-6.816 0.672-13.376 0.672-19.776s-0.224-12.96-0.672-19.776l100.48-73.376c10.816-7.904 15.552-21.728 11.904-34.624-9.856-34.496-23.424-67.424-40.352-97.824-6.528-11.712-19.488-18.048-32.896-16.064l-123.296 19.2c-8.672-9.76-17.984-19.072-27.808-27.776l19.232-123.296c2.048-13.248-4.352-26.368-16.064-32.896-30.24-16.832-63.136-30.4-97.76-40.32C636.928-63.584 633.984-64 631.04-64zM337.152 23.328c13.984-6.752 28.544-12.704 43.552-17.92l70.528 96.576c6.784 9.28 17.984 14.272 29.472 12.896 20.576-2.336 42.08-2.336 62.624 0 11.84 1.376 22.72-3.616 29.472-12.896l70.528-96.576c15.04 5.184 29.6 11.168 43.552 17.92l-18.432 118.368c-1.76 11.36 2.72 22.848 11.712 30.016 16.384 12.992 31.264 27.872 44.16 44.128 7.168 8.992 18.4 13.504 30.016 11.744l118.368-18.432c6.752 14.016 12.736 28.576 17.92 43.552l-96.576 70.528c-9.28 6.784-14.208 18.016-12.896 29.472 1.152 10.272 1.952 20.704 1.952 31.296s-0.768 21.024-1.952 31.296c-1.312 11.424 3.616 22.688 12.896 29.472l96.576 70.56c-5.152 15.008-11.168 29.568-17.92 43.552l-118.4-18.432c-11.328-1.696-22.816 2.688-29.984 11.744-12.896 16.256-27.776 31.104-44.16 44.128-8.992 7.168-13.472 18.592-11.712 29.984l18.432 118.4c-14.016 6.752-28.576 12.736-43.52 17.92l-70.56-96.576c-6.784-9.28-17.696-14.368-29.472-12.928-20.544 2.368-42.016 2.4-62.56 0-11.52-1.344-22.752 3.616-29.536 12.896l-70.528 96.576c-14.976-5.152-29.536-11.136-43.552-17.92l18.432-118.368c1.76-11.392-2.72-22.848-11.744-30.016-16.32-12.928-31.2-27.808-44.128-44.128-7.168-9.024-18.56-13.472-30.016-11.744l-118.368 18.432c-6.752-14.016-12.736-28.576-17.92-43.552l96.576-70.56c9.312-6.784 14.24-18.08 12.896-29.536C241.696 404.992 240.928 394.592 240.928 384s0.768-20.992 1.952-31.264c1.344-11.456-3.616-22.688-12.896-29.504l-96.576-70.528c5.184-15.008 11.168-29.568 17.92-43.552l118.368 18.432c11.392 1.76 22.848-2.752 30.016-11.744 12.896-16.32 27.744-31.168 44.128-44.128 9.024-7.168 13.504-18.624 11.744-30.016L337.152 23.328z"  horiz-adv-x="1024" />

    
    <glyph glyph-name="question" unicode="&#59025;" d="M512 111.648m-48 0a1.5 1.5 0 1 0 96 0 1.5 1.5 0 1 0-96 0ZM512-64C264.96-64 64 136.96 64 384S264.96 832 512 832s448-200.96 448-448S759.04-64 512-64zM512 767.712C300.416 767.712 128.288 595.584 128.288 384c0-211.552 172.128-383.712 383.712-383.712 211.552 0 383.712 172.16 383.712 383.712C895.712 595.584 723.552 767.712 512 767.712zM512 222.304c-17.664 0-32 14.336-32 32l0 54.112c0 52.352 40 92.352 75.328 127.648C581.216 461.984 608 488.736 608 510.08c0 53.344-43.072 96.736-96 96.736-53.824 0-96-41.536-96-94.56 0-17.664-14.336-32-32-32s-32 14.336-32 32c0 87.424 71.776 158.56 160 158.56s160-72.096 160-160.736c0-47.904-36.32-84.192-71.424-119.296C572.736 363.008 544 334.272 544 308.448l0-54.112C544 236.672 529.664 222.304 512 222.304z"  horiz-adv-x="1024" />

    
    <glyph glyph-name="footprint" unicode="&#59037;" d="M885.76 214.464c-13.76 11.168-33.92 8.896-44.96-4.832-11.104-13.76-8.928-33.92 4.832-44.96 22.4-18.08 52.48-71.776 52.48-101.984 0-54.016-43.904-97.952-97.92-97.952-31.776 0-61.728 15.488-80.096 41.504-2.208 3.136-61.536 88.672-96.192 125.696-61.088 65.216-163.52 61.568-163.904 61.632-129.76 26.752-218.656 132.032-202.4 239.744 8.064 53.728 40.96 100.736 92.64 132.448 53.44 32.736 120.192 45.184 188 34.976 67.712-10.208 127.84-41.728 169.28-88.768 40.064-45.504 57.664-100.128 49.536-153.92-3.072-20.576-9.856-40.352-20.224-58.816-8.672-15.392-3.2-34.912 12.256-43.552 15.328-8.608 34.912-3.2 43.552 12.256 14.176 25.248 23.488 52.416 27.712 80.672 10.976 72.704-12.064 145.76-64.8 205.696-51.392 58.336-125.184 97.344-207.776 109.76C465.184 676.448 383.104 660.96 316.8 620.32c-68.096-41.728-111.584-104.768-122.496-177.472-21.344-141.312 89.696-278.336 252.768-311.968 2.176-0.448 89.216 0.96 130.112-42.688 35.808-38.24 90.528-121.344 94.56-123.776 30.528-39.872 77.984-63.648 128.416-63.648 89.28 0 161.92 72.672 161.92 161.952C962.08 114.368 921.792 185.472 885.76 214.464zM128.416 575.136m-64 0a2 2 0 1 0 128 0 2 2 0 1 0-128 0ZM272.864 667.744c-10.976 0-21.984 3.712-30.944 11.328C221.92 696.096 219.136 725.888 235.936 746.08c3.968 4.736 98.688 115.68 277.184 79.968 25.984-5.184 42.848-30.464 37.664-56.48s-30.496-42.976-56.48-37.664c-120.8 24.192-182.304-44.672-184.864-47.584C299.904 673.376 286.4 667.744 272.864 667.744z"  horiz-adv-x="1024" />

    
    <glyph glyph-name="refund" unicode="&#59052;" d="M985.984 306.016c-10.304 14.304-30.272 17.568-44.672 7.296l-56.928-40.992c9.856 35.872 15.04 73.024 15.04 110.72 0 229.952-187.104 417.024-417.056 417.024-229.984 0-417.056-187.072-417.056-417.024 0-229.952 187.104-417.024 417.056-417.024 72.736 0 144 19.104 206.688 55.008 3.36 0.672 6.688 1.76 9.824 3.616 17.952 10.688 35.136 22.784 51.168 35.936 13.632 11.264 15.584 31.392 4.384 45.056-11.264 13.632-31.36 15.616-45.056 4.384-12.544-10.304-26.08-19.616-40.064-28.16-2.144-0.704-4.352-1.024-6.368-2.24-54.368-32.448-116.8-49.6-180.544-49.6-194.656 0-353.056 158.368-353.056 353.024S287.68 736.064 482.368 736.064 835.392 577.696 835.392 383.04c0-44.16-8.192-87.552-24-128.192l-45.28 108.704c-6.816 16.352-25.568 23.968-41.856 17.248-16.32-6.784-24.032-25.536-17.216-41.856l72-172.864c0.736-1.824 1.888-3.328 2.944-4.96 0.288-0.448 0.32-0.96 0.64-1.408 0.096-0.16 0.288-0.192 0.384-0.352 2.752-3.648 6.24-6.496 10.208-8.704 0.704-0.384 1.344-0.768 2.08-1.088 3.328-1.536 6.848-2.72 10.624-3.04 0.64-0.064 1.216 0.096 1.856 0.064 0.32 0 0.576-0.192 0.832-0.192 0.672 0 1.312 0.256 1.984 0.32 2.4 0.096 4.736 0.448 7.008 1.056 0.512 0.16 0.96 0.352 1.44 0.512 2.592 0.896 5.024 2.112 7.296 3.648 0.32 0.224 0.672 0.288 0.96 0.512l151.392 108.96C993.024 271.68 996.288 291.68 985.984 306.016zM606.752 521.504c12.672 12.288 13.024 32.544 0.736 45.248-12.288 12.672-32.512 13.056-45.248 0.736l-79.744-77.12-79.744 77.12c-12.704 12.288-32.992 11.968-45.248-0.736-12.288-12.704-11.968-32.96 0.736-45.248L448 434.72 448 416l-64 0c-17.664 0-32-14.336-32-32s14.336-32 32-32l64 0 0-32-64 0c-17.664 0-32-14.304-32-32s14.336-32 32-32l64 0 0-67.264c0-17.696 14.336-32 32-32s32 14.304 32 32L512 256l64 0c17.696 0 32 14.304 32 32s-14.304 32-32 32l-64 0 0 32 64 0c17.696 0 32 14.336 32 32s-14.304 32-32 32l-64 0 0 13.888L606.752 521.504z"  horiz-adv-x="1024" />

    
    <glyph glyph-name="game" unicode="&#59103;" d="M204.896 32.896c-3.456 0-6.912 0.128-10.4 0.416-107.776 8.832-179.584 169.792-163.488 366.4C47.36 599.648 141.024 744.256 249.44 734.944c48.384-3.968 81.92-42.912 105.76-76.416 10.24-14.4 6.88-34.368-7.52-44.64C333.248 603.648 313.312 607.072 303.04 621.44c-23.456 32.96-41.6 48.288-58.816 49.728-59.008 4.256-135.584-107.584-149.408-276.672-13.824-169.056 44.192-292.384 104.928-297.344 52.96-4.96 105.024 61.152 132.192 166.848C335.552 278.112 348.288 288 362.912 288l299.904 0c14.432 0 27.072-9.664 30.88-23.552 29.152-106.688 81.216-172.352 135.328-166.848 29.408 2.976 57.28 33.632 76.448 84.096 22.208 58.592 30.016 135.04 21.888 215.232s-31.072 153.536-64.64 206.56c-28.928 45.696-62.016 70.592-91.744 67.2C752.64 668.8 731.36 651.488 711.168 621.952 705.216 613.216 695.328 608 684.736 608L448 608c-17.664 0-32 14.336-32 32s14.336 32 32 32l220.48 0c29.28 37.92 61.568 58.848 96.064 62.336 107.328 10.944 206.592-134.592 226.496-331.008 9.088-89.888-0.032-176.672-25.76-244.384-28.512-75.072-74.592-119.456-129.824-125.056-81.76-8.352-156.128 63.968-196.544 190.08l-251.808 0C350.624 104.448 282.592 32.896 204.896 32.896zM320 448 288 448l0 32c0 17.664-14.336 32-32 32s-32-14.336-32-32l0-32L192 448c-17.664 0-32-14.336-32-32s14.336-32 32-32l32 0 0-32c0-17.696 14.336-32 32-32s32 14.304 32 32l0 32 32 0c17.664 0 32 14.336 32 32S337.664 448 320 448zM800 512m-64 0a2 2 0 1 0 128 0 2 2 0 1 0-128 0ZM672 384m-64 0a2 2 0 1 0 128 0 2 2 0 1 0-128 0Z"  horiz-adv-x="1024" />

    
    <glyph glyph-name="fi32" unicode="&#58887;" d="M444.8 616.16c0.64 0 1.28 0.64 1.28 0.64C446.08 616.8 445.44 616.8 444.8 616.16zM512 808.8C231.04 808.8 3.2 580.96 3.2 300c0-280.96 227.84-508.8 508.8-508.8s508.8 227.84 508.8 508.8C1020.8 580.96 792.96 808.8 512 808.8zM312.32 278.24c14.08 1.28 27.52-5.12 40.96-0.64 13.44 4.48 26.88 10.24 39.68 16 21.76 8.96 43.52 21.12 55.68 41.6-21.12 6.4-43.52-7.04-64 3.2-17.92 8.96-28.8 28.8-32 48-5.12 32-16.64 88.32 2.56 117.12 14.08 21.12 37.76 12.16 40.96-11.52 1.92-18.56-3.84-37.76-3.2-56.32 1.28-39.68 24.96-61.44 65.28-55.68 45.44 6.4 90.88 7.68 136.96 8.32 48.64 0.64 53.76 35.2 43.52 75.52-9.6 39.68-32 55.68-72.96 57.6-37.12 1.92-80 13.44-114.56-4.48-16-7.04-51.2-16.64-56.96 8.96-7.04 31.36 46.08 34.56 64 36.48 57.6 7.04 131.2 8.96 184.96-17.28 47.36-23.68 55.68-106.88 46.08-152.32-9.6-42.88-57.6-49.92-94.72-51.84-20.48-0.64-40.96 0.64-61.44-1.28-28.8-1.92-23.04 2.56-42.24-22.4-35.84-46.08-83.2-63.36-135.68-80-18.56-5.76-60.16-18.56-69.76 8.32C280.96 262.24 296.96 276.32 312.32 278.24zM456.32 470.88c0 0-0.64 0-0.64 0.64C455.68 470.88 456.32 470.88 456.32 470.88c21.76-6.4 50.56 3.2 73.6 0.64 16.64-1.28 39.04 6.4 54.4-0.64 11.52-5.76 16-23.04 7.04-33.28-11.52-13.44-30.72-1.92-44.8-2.56-21.12-1.28-46.08 1.92-66.56-3.2-13.44-3.2-30.72-10.24-43.52-0.64C417.92 445.28 433.28 479.2 456.32 470.88zM446.72 474.08c1.28-0.64 2.56-0.64 4.48-1.92C449.28 473.44 448 474.08 446.72 474.08zM511.36 117.6c-19.84-3.2-37.76-23.68-54.4-34.56-30.08-20.48-67.84-42.88-104.32-48.64-33.92-5.76-59.52 32.64-23.68 51.84 36.48 19.2 80 15.36 115.2 40.96 27.52 33.28 72.32 44.8 104.96 71.68 16.64 13.44 32 32.64 53.76 39.04 10.24 3.2 21.12-2.56 20.48-14.72-0.64-13.44-15.36-24.32-24.32-32-20.48-16-48.64-31.36-64-52.48C522.88 124 530.56 120.8 511.36 117.6zM624.64 45.92c0 0 0.64 0 1.28 0 0 0 0.64 0 0.64 0 0.64 0 1.28 0 1.92 0.64-0.64 0-1.28 0-1.92-0.64 0 0-0.64 0-0.64 0C625.28 45.92 625.28 45.92 624.64 45.92zM639.36 49.12C640.64 49.76 640 49.76 639.36 49.12L639.36 49.12zM624 45.92c-24.32-6.4-50.56-19.2-72.96-0.64-11.52 9.6-36.48 40.96-28.8 57.6 8.96 19.2 47.36-10.88 64-10.88 22.4 0.64 43.52 10.88 61.44 24.32 35.2 26.88 69.12 80.64 37.12 122.88-15.36 20.48-32.64 4.48-50.56 12.16-14.72 6.4-8.96 32.64-28.8 35.84-48 8.32-99.84-60.8-133.76-88.32-40.96-33.28-95.36-67.84-148.48-76.8-22.4-3.84-55.04 18.56-28.8 38.4 20.48 15.36 48 16 71.04 25.6 60.8 23.68 121.6 66.56 172.8 106.88-21.76 14.72 0 35.84 17.92 38.4 22.4 3.2 44.8-3.84 67.2-4.48 43.52-1.28 79.36-32.64 99.2-69.12C767.36 176.48 716.16 66.4 624 45.92z"  horiz-adv-x="1024" />

    
    <glyph glyph-name="notice" unicode="&#59146;" d="M889.92 146.272c-1.184 1.632-119.232 166.144-119.232 287.392 0 168.448-76.16 254.784-162.688 287.008L608 736c0 52.928-43.072 96-96 96s-96-43.072-96-96l0-16.576c-10.784-7.904-16.096-21.792-11.808-35.232 5.376-16.832 23.424-26.048 40.224-20.736C462.176 669.12 481.344 672 501.312 672l21.376 0c115.232 0 184-89.088 184-238.304 0-108.032 72.896-235.392 110.176-293.504C759.488 114.016 633.824 64 512 64c-121.504 0-247.424 50.368-304.832 76.64 37.312 57.984 110.144 185.024 110.144 293.056 0 62.432 11.616 114.208 34.528 153.92 8.832 15.328 3.584 34.88-11.712 43.712-15.392 8.864-34.88 3.584-43.712-11.712-28.608-49.536-43.104-112.096-43.104-185.92 0-121.216-118.016-285.248-119.2-286.88-5.408-7.456-7.36-16.928-5.312-25.952 2.048-8.96 7.872-16.672 16-21.024 5.664-3.072 107.392-57.28 233.536-84.512C399.744-51.072 452.16-96 512-96s112.256 44.928 133.632 111.296c126.112 27.104 227.84 80.992 233.504 84.032 8.128 4.352 14.016 12.032 16.064 21.024S895.328 138.784 889.92 146.272zM501.312 736C494.048 736 487.104 735.008 480 734.432L480 736c0 17.632 14.368 32 32 32s32-14.368 32-32l0-0.928C536.832 735.68 529.728 736 522.688 736L501.312 736zM512-32c-22.336 0-43.136 13.408-57.984 35.296C473.216 1.28 492.608 0 512 0s38.784 1.28 57.984 3.296C555.136-18.624 534.304-32 512-32z"  horiz-adv-x="1024" />

    
    <glyph glyph-name="home" unicode="&#58976;" d="M952.105065 325.667589 551.909453 729.912423c0 0-15.874549 18.875906-40.078811 18.875906-26.237571 0-40.036855-18.887163-40.036855-18.887163L71.600223 325.622564c-11.07729-11.17041-11.07729-29.265534 0-40.444131 11.007705-11.142781 26.583448-2.606361 37.635155 8.524141l26.838252 27.142174L512.982886 694.438491l401.486-403.89998c11.006681-7.272637 28.01403-15.077394 37.635155-5.334495C963.181331 296.35703 963.181331 314.478759 952.105065 325.667589zM808.207747 344.273343c-12.298094 0-22.316262-10.05603-22.358217-22.476921l0-0.045025c0-0.047072 0-0.047072 0-0.095167l0-376.936885c0-24.976858-20.052708-45.213761-44.719504-45.213761l-99.457176 0 0 218.046085c0 47.417963-38.005592 85.831854-84.96409 85.831854l-89.714278 0c-46.958498 0-84.96409-38.413891-84.96409-85.831854l0-218.046085-99.454106 0c-24.666796 0-44.718481 20.23588-44.718481 45.213761L237.857804 321.727861c-0.022513 12.464893-10.038634 22.543436-22.336728 22.543436-12.344143 0-22.338774-10.080589-22.3838-22.543436l0-381.542786c0-47.430242 38.027082-85.844134 84.96102-85.844134l148.629085 0L426.727383 113.033771c0 24.963555 20.051685 45.187155 44.719504 45.187155l80.81049 0c24.667819 0 44.720527-20.22667 44.720527-45.187155l0-258.69283L745.604944-145.659059c46.933939 0 84.963067 38.413891 84.963067 85.84618L830.568011 321.796422C830.496379 334.215266 820.529377 344.273343 808.207747 344.273343z"  horiz-adv-x="1024" />

    
    <glyph glyph-name="crown" unicode="&#59255;" d="M991.232 575.744c0 61.536-50.048 111.584-111.616 111.584s-111.616-50.048-111.616-111.584c0-52.704 36.8-96.736 86.016-108.384-44.224-88.16-102.656-170.112-133.952-170.112-30.464 0-91.872 88.864-153.984 259.136 44.672 19.648 75.104 63.968 75.104 115.136 0 69.632-56.672 126.272-126.304 126.272-69.664 0-126.336-56.672-126.336-126.272 0-51.296 30.56-95.68 75.36-115.232-66.112-183.168-123.648-250.656-147.264-250.656-43.872 0-104.8 85.312-144.448 161.76 49.248 11.616 86.112 55.68 86.112 108.416 0 61.536-50.08 111.584-111.616 111.584s-111.616-50.048-111.616-111.584c0-42.176 23.808-78.528 58.432-97.504l22.112-445.504c0.512-10.368 6.016-19.84 14.784-25.408 4.64-2.976 116.704-72.16 384.48-72.16 267.776 0 379.84 69.44 384.48 72.384 8.8 5.632 14.304 15.168 14.784 25.6l19.712 445.664C967.872 497.92 991.232 533.984 991.232 575.744zM831.968 575.744c0 26.24 21.376 47.584 47.616 47.584s47.616-21.344 47.616-47.584c0-26.272-21.376-47.616-47.616-47.616S831.968 549.472 831.968 575.744zM452.512 671.488c0 34.336 27.968 62.272 62.336 62.272s62.304-27.936 62.304-62.272c0-31.84-24.064-58.272-56-61.536-2.112-0.192-4.224-0.64-6.24-1.28-2.016 0.64-4.128 1.056-6.304 1.28C476.64 613.152 452.512 639.616 452.512 671.488zM146.656 623.328c26.272 0 47.616-21.344 47.616-47.584 0-26.272-21.344-47.616-47.616-47.616s-47.616 21.344-47.616 47.616C99.04 601.984 120.384 623.328 146.656 623.328zM850.976 54.432c-35.68-16.416-140.832-55.296-336.128-55.296-195.584 0-300.8 38.848-336.256 55.136L163.584 356.16c40.16-58.432 94.08-114.56 152.992-114.56 64.864 0 131.52 90.176 198.4 268.256 69.408-183.584 138.272-276.608 205.056-276.608 52.736 0 104.352 58.944 144.192 121.312L850.976 54.432z"  horiz-adv-x="1024" />

    
    <glyph glyph-name="tuan" unicode="&#58968;" d="M512.013 692.639c223.467 0 404.626-181.159 404.626-404.626 0-68.831-17.161-133.622-47.452-190.369-2.568-4.815-3.976-5.62-3.437-12.021 0.569-6.727 5.892-8.339 5.892-8.339l16.503-9.658c0 0 4.815-5.081 11.811-2.751 6.726 2.241 6.19 6.545 9.119 12.018 33.519 62.94 52.533 134.814 52.533 211.12 0 248.313-201.282 449.594-449.594 449.594-248.343 0-449.623-201.281-449.623-449.594 0-248.343 201.282-449.624 449.623-449.624 58.782 0 114.933 11.271 166.419 31.815 5.084 2.032 7.833 1.881 10.164 9.116 2.304 7.236-1.401 12.2-1.401 12.2l-5.863 13.817c0 0-2.871 6.814-8.999 8.19-5.052 1.107-5.561 0.448-10.226-1.404-46.402-18.568-97.052-28.763-150.094-28.763-223.497 0-404.655 181.16-404.655 404.656-0.002 223.467 181.157 404.625 404.653 404.625M270.189 452.818c-10.733 0-19.435-8.701-19.435-19.435v-19.435c0-10.733 8.701-19.435 19.435-19.435h311.278l-255.337-259.586c-7.536-7.177-7.863-18.775-0.715-25.922l12.944-12.946c7.177-7.145 19.075-7.145 26.641 0l240.061 244.097v-316.393c0-10.732 8.701-19.435 19.434-19.435h19.435c10.733 0 19.435 8.702 19.435 19.435l0 370.75h83.718c10.733 0 19.435 8.701 19.435 19.435v20.362c0 10.733-8.701 18.507-19.435 18.507h-83.718v93.614c0 10.733-8.701 18.507-19.435 18.507h-19.435c-10.732 0-19.434-8.701-19.434-19.434v-92.688l-334.871-0z"  horiz-adv-x="1024" />

    
    <glyph glyph-name="tea" unicode="&#59204;" d="M336.034 699.134c14.029-15.411 20.243-29.707 18.337-42.511-3.080-20.935-26.365-34.762-26.745-34.989-9.822-5.609-13.245-18.136-7.654-27.975 5.589-9.898 18.149-13.376 28.035-7.769 1.655 0.942 40.766 23.506 47.003 64.313 0.451 2.927 0.726 5.846 0.823 8.769 0.78 23.395-9.62 46.788-31.020 69.651-0.996 1.080-2.244 2.132-3.455 2.961-0.206 0.153-21.172 14.86-22.816 36.919-1.174 16.863 8.678 35.033 29.415 54.429 8.299 7.767 8.734 20.778 0.97 29.082-7.768 8.299-20.779 8.734-29.082 0.969-30.496-28.533-44.723-58.166-42.294-88.099 2.952-36.319 30.232-59.508 38.483-65.748zM475.326 699.134c14.029-15.411 20.243-29.707 18.337-42.511-3.080-20.935-26.365-34.762-26.745-34.989-9.822-5.609-13.245-18.136-7.654-27.975 5.589-9.898 18.149-13.376 28.035-7.769 1.655 0.942 40.766 23.506 47.003 64.313 0.452 2.927 0.726 5.846 0.823 8.769 0.78 23.395-9.62 46.788-31.020 69.651-0.996 1.080-2.244 2.132-3.455 2.961-0.206 0.153-21.172 14.86-22.816 36.919-1.174 16.863 8.678 35.033 29.415 54.429 8.299 7.767 8.734 20.778 0.97 29.082-7.768 8.299-20.778 8.734-29.082 0.969-30.496-28.533-44.723-58.166-42.294-88.099 2.953-36.319 30.233-59.508 38.483-65.748zM842.291 475.866c-28.075 0-53.69-10.7-72.98-28.239v68.851c0 10.181-16.495 18.432-26.682 18.432h-641.101c-10.181 0-18.432-8.251-18.432-18.432v-202.306c0-56.231 10.001-106.693 29.734-150.005 15.974-35.070 38.284-65.469 66.295-90.342 47.868-42.49 95.859-54.095 97.877-54.574 1.371-0.321 2.792-0.488 4.204-0.488h262.087c1.144 0 2.286 0.11 3.407 0.325 2.287 0.431 56.76 11.021 111.47 52.213 32.308 24.312 58.057 54.289 76.546 89.089 22.953 43.201 34.595 93.765 34.595 150.292v50.048c0.766 2.026 1.188 4.222 1.188 6.518 0 39.577 32.201 66.149 71.79 66.149 39.578 0 66.15-26.573 66.15-66.149 0-39.59-37.244-67.898-77.409-71.793-10.13-0.982-18.427-8.251-18.427-18.413 0-10.177 8.286-17.581 18.427-18.429 60.431-5.049 118.754 48.735 118.754 108.635 0.001 59.892-42.56 109.991-107.495 108.62zM722.692 314.471c0-49.014-9.831-92.557-29.222-129.406-15.416-29.308-36.978-54.633-64.059-75.272-42.317-32.245-85.475-40.953-93.82-42.848h-241.368c-8.164 2.313-34.971 11.288-70.239 42.602-23.645 20.993-50.745 46.714-64.283 76.43-17.163 37.679-25.863 82.055-25.863 131.912v174.522h588.854v-177.941zM754.68-33.535h-651.881c-10.882 0-19.703-13.958-19.703-24.839s8.822-22.812 19.703-22.812h651.881c10.882 0 19.703 13.619 19.703 24.5s-8.821 23.151-19.703 23.151z"  horiz-adv-x="1024" />

    
    <glyph glyph-name="right" unicode="&#58938;" d="M487.602-4.599C267.26-4.599 88 174.659 88 394.998 88 615.339 267.26 794.6 487.602 794.6c78.611 0 154.681-22.806 219.987-65.953 8.858-5.851 11.307-17.823 5.458-26.688-3.575-5.411-9.597-8.645-16.102-8.645-3.762 0-7.419 1.103-10.578 3.189-58.998 38.98-127.73 59.585-198.765 59.585-199.105 0-361.09-161.984-361.09-361.089 0-199.104 161.984-361.086 361.09-361.086 199.103 0 361.085 161.982 361.085 361.086 0 12.64-0.647 25.291-1.925 37.602-0.529 5.115 0.966 10.131 4.21 14.121 3.243 3.99 7.847 6.478 12.962 7.004 0.679 0.07 1.357 0.105 2.025 0.105 9.879 0 18.093-7.426 19.108-17.273 1.414-13.662 2.131-27.643 2.131-41.56C887.199 174.659 707.94-4.599 487.602-4.599zM446.812 186.174c-7.597 0-14.737 2.962-20.106 8.339L268.613 352.581c-11.074 11.083-11.074 29.122 0.003 40.208 5.365 5.371 12.5 8.328 20.093 8.328 7.594 0 14.732-2.958 20.1-8.328l138.003-138.011 341.517 341.556c5.371 5.371 12.512 8.329 20.106 8.329s14.735-2.958 20.106-8.33c11.067-11.073 11.065-29.109-0.007-40.205L466.894 194.507C461.524 189.132 454.394 186.174 446.812 186.174z"  horiz-adv-x="1024" />

    
    <glyph glyph-name="location-dealer" unicode="&#58986;" d="M222.639 472.881c18.475-0.045 31.885 14.392 32.147 34.835 0.367 28.601 5.116 56.431 14.077 83.589 35.675 108.098 136.391 181.296 249.74 177.318 99.499-3.492 172.402-53.037 219.371-139.918 24.657-45.62 35.099-95.073 28.19-147.057-4.582-34.484-18.267-66.133-34.681-96.416-56.302-103.894-133.639-191.29-216.247-274.526-4.379-4.414-6.32-2.076-9.404 0.805-24.925 23.297-49.009 47.439-71.99 72.636-59.617 65.364-114.166 134.281-151.462 215.388-7.918 17.215-26.615 23.833-42.887 16.289-16.226-7.525-22.703-25.75-15.189-43.169 7.93-18.384 17.134-36.145 27.287-53.378 62.405-105.877 144.15-195.387 235.112-277.025 17.567-15.765 33.205-15.27 50.342 0.824 49.043 46.053 94.984 95.033 137.803 146.912 45.989 55.728 88.308 113.987 120.176 179.185 21.27 43.513 37.018 88.596 37.564 137.9-1.18 70.286-21.466 134.427-62.297 191.965-73.925 104.171-204.759 154.924-326.892 126.698-147.62-34.108-252.363-165.844-252.78-317.918-0.055-20.113 13.479-34.89 32.020-34.937zM956.453-17.255c-42.502 75.169-85.512 150.055-128.463 224.976-5.491 9.57-14.215 15.016-25.306 15.777-12.338 0.849-22.257-4.129-29.026-14.41-7.511-11.408-7.095-23.156-0.342-34.948 31.473-54.977 62.885-109.991 94.228-165.038 1.731-3.038 4.469-5.752 4.507-9.904l-722.231-0c11.645 20.46 22.494 39.555 33.385 58.639 22.153 38.798 44.458 77.513 66.442 116.409 11.386 20.139 2.039 42.941-19.443 48.531-14.525 3.772-28.394-3.046-37.266-18.569-41.197-72.080-81.515-144.684-123.925-216.041-16.21-27.271 1.867-54.193 31.354-53.929 131.37 1.161 262.759 0.503 394.14 0.503 143.747 0 287.499-0.021 431.252 0.024 27.592 0.002 43.814 24.769 30.694 47.98zM639.916 512.453c-0.004 70.542-57.472 128.216-127.892 128.347-71.126 0.134-128.842-57.367-128.85-128.356 0-70.549 57.437-128.226 127.858-128.383 71.032-0.158 128.894 57.482 128.883 128.392zM447.368 512.569c0.059 35.405 28.926 64.034 64.567 64.044 34.8 0.009 63.644-28.834 63.791-63.785 0.149-35.010-28.392-64.251-63.031-64.576-36.083-0.339-65.387 28.514-65.327 64.317z"  horiz-adv-x="1024" />

    
    <glyph glyph-name="mail" unicode="&#58909;" d="M719.999548 723.199426 576.000168 723.199426c-12.800833 0-22.400791 9.599959-22.400791 22.400791 0 12.799501 9.599959 22.399459 22.400791 22.399459l140.799837 0c12.799501 0 22.399459-9.599959 22.399459-22.399459C739.199465 732.799385 729.599506 723.199426 719.999548 723.199426L719.999548 723.199426zM719.999548 723.199426M719.999548 598.399964 307.199995 598.399964c-12.799501 0-22.399459 9.599959-22.399459 22.399459 0 12.800833 9.599959 22.400791 22.399459 22.400791l409.600011 0c12.799501 0 22.399459-9.599959 22.399459-22.400791C742.400339 607.999923 729.599506 598.399964 719.999548 598.399964L719.999548 598.399964zM719.999548 598.399964M719.999548 470.399628 307.199995 470.399628c-12.799501 0-22.399459 9.599959-22.399459 22.399459 0 12.800833 9.599959 22.400791 22.399459 22.400791l409.600011 0c12.799501 0 22.399459-9.599959 22.399459-22.400791C742.400339 479.999586 729.599506 470.399628 719.999548 470.399628L719.999548 470.399628zM719.999548 470.399628M512 156.799203c-12.799501 0-25.600334 3.200874-38.399834 9.599959L19.199904 454.399253c-9.599959 6.400416-12.799501 19.199917-6.400416 32.00075 6.400416 9.599959 19.199917 12.799501 32.00075 6.399084l454.400262-284.799217c9.599959-6.400416 19.199917-6.400416 28.799876 0L982.400637 492.799087c9.599959 6.400416 25.599002 3.200874 31.999418-6.399084 6.400416-9.599959 3.199542-25.600334-6.400416-32.00075L553.599377 169.600036C540.799876 160.000077 528.000375 156.799203 512 156.799203L512 156.799203zM512 156.799203M953.599429-128.000013l-879.999315 0c-38.399834 0-73.600127 31.999418-73.600127 70.399253L-1.3e-05 444.799294c0 28.799876 16.000375 54.40021 44.800251 67.19971l128.000336 54.40021c12.799501 6.400416 25.599002 0 28.799876-12.799501 6.399084-12.799501 0-25.600334-12.800833-28.799876l-127.999004-54.40021c-9.599959-3.199542-16.000375-12.799501-16.000375-25.600334l0-502.400055c0-15.999043 12.799501-28.799876 28.799876-28.799876l879.999315 0c16.000375 0 28.801208 12.800833 28.801208 28.799876L982.400637 454.399253c0 3.200874-3.200874 6.400416-6.400416 9.599959L838.399925 521.600295c-12.799501 6.399084-16.000375 19.199917-12.799501 28.799876 3.199542 12.799501 19.199917 15.999043 28.799876 12.799501l137.600295-57.599752c19.199917-9.599959 31.999418-28.799876 31.999418-51.200667l0-512.000013C1024.000013-96.000595 992.000595-128.000013 953.599429-128.000013L953.599429-128.000013zM953.599429-128.000013M844.800342 361.599209c-12.800833 0-22.400791 9.599959-22.400791 22.400791l0 438.399887c0 16.000375-12.799501 28.799876-28.799876 28.799876L230.400326 851.199762c-16.000375 0-28.799876-12.799501-28.799876-28.799876l0-438.399887c0-12.800833-9.599959-22.400791-22.400791-22.400791-9.599959 0-19.199917 9.599959-19.199917 22.400791l0 438.399887c0 38.399834 32.00075 73.600127 70.400585 73.600127l563.199349 0c38.399834 0 73.600127-32.00075 73.600127-73.600127l0-438.399887C867.199801 371.199167 857.599842 361.599209 844.800342 361.599209L844.800342 361.599209zM844.800342 361.599209"  horiz-adv-x="1024" />

    
    <glyph glyph-name="shop" unicode="&#58906;" d="M1013.57568 729.3952c-6.92224 10.15808-21.01248 22.17984-49.13152 22.17984-46.1824-0.69632-646.8608 0-651.8784 0L312.5248 751.57504c-11.776 0-21.2992-15.62624-21.34016-27.42272-0.04096-11.776 9.48224-25.6 21.2992-25.6 22.77376 0 606.02368-1.04448 652.24704-0.38912 6.9632 0 8.76544-3.97312 9.37984-6.10304 0.79872-2.82624 2.2528-2.06848-6.51264-25.06752-21.05344-44.46208-120.58624-273.98144-133.26336-293.86752-1.90464-3.03104-3.03104-5.81632-5.05856-8.41728-8.27392-10.81344-3.23584-8.86784-30.90432-8.86784l-471.57248 0.32768c-25.47712 96.19456-116.20352 402.432-120.4224 417.93536-0.28672 1.00352-0.6144 1.88416-0.98304 2.80576C190.50496 811.60192 155.99616 813.54752 119.41888 813.54752l-98.0992 0C9.54368 813.54752 0 804.02432 0 792.2688 0 780.4928 9.54368 760.46336 21.31968 760.46336L118.784 760.54528c18.71872 0 34.87744 1.10592 43.17184-16.83456 1.18784-4.36224 109.40416-370.09408 123.82208-433.60256 16.13824-70.92224 65.51552-115.36384 140.6976-115.36384l380.25216 0c11.79648 0 24.28928 15.58528 24.28928 27.3408s-10.73152 25.68192-22.54848 25.68192l-393.40032 0.08192c-41.7792 0-59.41248 27.27936-73.97376 55.00928l455.92576 0c48.27136 0 62.23872 17.36704 75.48928 40.01792 1.37216 2.3552 2.82624 4.83328 4.44416 7.3728 13.57824 21.27872 113.23392 251.392 135.80288 299.15136C1026.06848 683.84768 1026.33472 710.79936 1013.57568 729.3952zM397.1072 155.52512c-54.92736 0-99.57376-44.72832-99.61472-99.61472 0-54.94784 44.68736-99.65568 99.61472-99.65568s99.61472 44.72832 99.61472 99.65568C496.72192 110.81728 452.03456 155.52512 397.1072 155.52512zM397.1072 8.0896c-26.29632 0-47.7184 21.44256-47.7184 47.77984 0 26.3168 21.4016 47.7184 47.7184 47.7184 26.33728 0 47.73888-21.4016 47.73888-47.7184C444.84608 29.51168 423.44448 8.0896 397.1072 8.0896zM802.4064 155.52512c-54.92736 0-99.55328-44.72832-99.59424-99.61472 0-54.94784 44.68736-99.65568 99.59424-99.65568 54.94784 0 99.61472 44.72832 99.61472 99.65568C902.02112 110.81728 857.33376 155.52512 802.4064 155.52512zM802.4064 8.0896c-26.29632 0-47.69792 21.44256-47.69792 47.77984 0 26.3168 21.4016 47.7184 47.69792 47.7184 26.33728 0 47.75936-21.4016 47.75936-47.7184C850.16576 29.51168 828.74368 8.0896 802.4064 8.0896z"  horiz-adv-x="1024" />

    
    <glyph glyph-name="i" unicode="&#58937;" d="M795.681456 129.776971c-182.979428 74.27668-157.614737 65.218374-157.614737 164.849512 0 0 44.385906 44.193525 46.004777 100.559277 0 0 82.925664 44.277436 28.177759 134.461411 0 0 93.397157 239.139495-90.982154 287.450804 0 0-79.713506 87.769996-239.948931 12.887518 0 0-140.912333-61.198827-75.691913-299.528887 0 0-49.9179-67.635423 28.189016-141.719722 0 0 6.438643-56.355519 45.086871-94.207615 0 0 8.05649-66.827011-9.662057-91.790566-17.718547-24.953322-111.925139-58.770522-194.053648-95.003747 0 0-110.041232-45.266973-115.00529-195.346083l894.91504 0C955.096189-87.612151 978.648604 55.497221 795.681456 129.776971zM111.668801-42.369737c12.163017 52.80567 68.347644 120.30704 170.610726 148.485823 102.263082 28.187993 137.686872 73.27384 140.91131 95.016027 3.212158 21.74014 4.021593 110.307292 4.021593 110.307292-52.332902 49.120744-53.142337 117.563556-53.142337 117.563556s-24.964578-2.416026-36.233226 34.615379c-11.268648 37.042661 16.908088 50.726312 16.908088 50.726312-63.61383 227.871871 47.501874 273.767154 47.501874 273.767154 137.686872 65.220421 199.694111-15.302521 199.694111-15.302521 147.348929-15.290241 60.389392-260.071224 60.389392-260.071224s21.292955 0.193405 18.515702-42.839691c-2.778276-43.033096-36.089963-37.489846-36.089963-37.489846-8.333806-84.676541-49.976228-117.999484-49.976228-117.999484 2.764973-87.455841-29.157064-154.089447 138.819672-208.233602 167.977759-54.145178 169.367409-148.545174 169.367409-148.545174L111.668801-42.369737z"  horiz-adv-x="1024" />

    
    <glyph glyph-name="douhao" unicode="&#61201;" d="M515.2 896c-1.1 0-2.2 0-3.4 0C337.5 896 194.7 755.1 192.9 580.4c-0.9-85.2 31.4-168 91.1-228.9 59.6-60.9 139.4-98.1 224.6-98.1 1.2 0 2.3 0 3.5 0 39.5 0 77.8 9.7 113.6 23.4-57-114.9-146.5-211.7-261.5-280.4-31.9-19.1-42.4-59.8-23.3-91.8 12.6-21.1 35-32.5 57.9-32.5 11.7 0 23.7 3.2 34.5 9.7 246 147 406.2 405.1 397.7 691.9C825.6 749.4 691.1 896 515.2 896z"  horiz-adv-x="1024" />

    
    <glyph glyph-name="erweima" unicode="&#58894;" d="M10.04032 426.01472V875.25376h458.50624v-449.23904H10.04032z m375.95136 367.80544H93.6704v-286.65344h292.32128V793.82016zM10.37824 342.26688h458.19904v-449.32096H10.37824v449.32096z m375.63904-81.55136H93.64992v-286.6944h292.36736v286.6944zM555.02848 425.79456V875.0848h458.9312v-449.29024h-458.9312z m82.95424 368.22016v-286.68928h292.33664V794.01472h-292.33664zM637.05088-107.16672H555.264v449.35168h249.5744v-13.17888c0-59.78624 0.22528-119.5776-0.22016-179.36384-0.0768-10.02496 3.00032-12.68224 12.74368-12.52352 34.00192 0.54784 68.0192 0.19456 102.03136 0.23552 3.5072 0.00512 7.0144 0.3328 11.42272 0.55296v204.032h82.82112v-285.08672h-291.42528v204.61568c-27.77088 0-53.82144 0.1024-79.86688-0.2304-1.75104-0.02048-4.34688-3.08736-4.97152-5.20704-0.88064-2.9696-0.32256-6.37952-0.32256-9.6l-0.00512-339.39968 0.00512-14.19776zM722.6112-106.89024v120.38144h123.57632v-120.38144h-123.57632zM1013.90336-107.25376h-123.55072v120.8832h123.55072v-120.8832zM177.47968 590.76608V711.1168h124.544v-35.9424c-0.00512-25.4208-0.0768-50.83648 0.04096-76.25216 0.0256-5.632-0.56832-9.61024-7.87456-9.55392-37.58592 0.27136-75.17184 0.20992-112.76288 0.31232-1.00864 0.00512-2.01728 0.5376-3.94752 1.08544zM177.69472 57.49248v121.13408h28.23168c28.64128-0.00512 57.27744 0.00512 85.91872-0.02048 4.99712-0.00512 10.22976 0.768 10.19392-7.13728-0.15872-37.56032-0.07168-75.12064-0.07168-113.97632H177.69472zM723.13344 711.18336h123.19232v-121.76384h-22.78912c-30.4128 0.00512-60.83072 0.05632-91.24864-0.03584-5.84192-0.01536-10.3168 0.128-10.24512 8.23808 0.32256 36.13696 0.15872 72.27904 0.21504 108.42112 0 1.39264 0.4608 2.78016 0.87552 5.14048z"  horiz-adv-x="1024" />

    
    <glyph glyph-name="v8" unicode="&#59084;" d="M178.623213-0.994398V696.75205H71.295789v71.552639h207.04452v-388.521734L592.426751 693.868373l-46.831609 74.436316h402.327159zM860.626096 216.896144c12.975523 11.380188 23.555485 24.453948 31.745004 39.231513 7.786337 13.775748 11.680017 30.144554 11.680017 49.114605-0.387833 36.335556-11.909238 66.38085-34.562167 90.143043-22.460548 23.555485-51.411927 35.535331-86.843903 35.93749-34.857902-0.402159-63.321164-12.387122-85.389786-35.95591-23.433712-23.772426-35.341926-53.831023-35.725666-90.187045 0-18.978237 4.290723-35.357276 12.877285-49.137117 7.384178-14.780635 17.566074-27.864628 30.546713-39.249933-33.977859-23.372314-51.164287-56.134485-51.566445-98.275257 0.38374-39.288818 13.289678-70.700225 38.717813-94.228081 24.257473-24.131607 54.438866-36.391838 90.541109-36.793998 36.293601 0.402159 66.956971 12.675694 91.991134 36.835953 24.650423 23.555485 37.167504 55.000662 37.556361 94.335529-0.404206 42.123376-17.59575 74.870198-51.567469 98.229208zM740.9269 353.707067c12.054547 10.234085 25.961278 15.353686 41.717123 15.353686 16.32992 0 30.528294-5.119601 42.591028-15.353686 11.858072-10.641361 17.983583-26.39516 18.376532-47.266514-0.39295-20.271696-6.51846-35.725666-18.376532-46.362934-12.062733-11.039427-26.261107-16.556071-42.591028-16.556071-15.755846 0-29.6636 5.516644-41.717123 16.556071-12.249999 10.637268-18.570961 26.091238-18.960841 46.362934 0.38988 20.87033 6.710842 36.625152 18.960841 47.266514z m90.289375-283.831371c-13.075807-13.411451-29.265534-20.116153-48.572252-20.116153-18.727527 0-34.627658 6.704702-47.697325 20.116153-13.654998 12.812817-20.676925 29.222555-21.066805 49.241495 0.38988 20.415982 7.411807 37.027311 21.066805 49.840128 13.068643 12.611226 28.969798 19.11536 47.697325 19.517519 19.306718-0.402159 35.496445-6.906294 48.572252-19.517519 13.260002-12.812817 20.088524-29.423123 20.481474-49.840128-0.39295-20.018939-7.220449-36.428677-20.481474-49.241495z"  horiz-adv-x="1024" />

    
    <glyph glyph-name="right1" unicode="&#59211;" d="M419.885 562.489l182.84-183.532-189.093-189.839 35.448-35.592 224.543 225.426-218.289 219.119-35.448-35.594zM517.336 816.251c-241.954 0-438.768-197.575-438.768-440.437s196.818-440.427 438.768-440.427c241.92 0 438.741 197.569 438.741 440.427 0 242.855-196.818 440.437-438.741 440.437zM517.336-14.298c-214.291 0-388.606 174.993-388.606 390.094s174.329 390.094 388.606 390.094c214.266 0 388.594-174.993 388.594-390.094s-174.328-390.094-388.594-390.094z"  horiz-adv-x="1024" />

    
    <glyph glyph-name="back" unicode="&#58886;" d="M617.152 759.328l-350.144-353.376c-0.512-0.512-0.672-1.216-1.152-1.76-0.128-0.128-0.32-0.16-0.448-0.288-12.416-12.576-12.352-32.832 0.192-45.28l353.344-350.113c12.577-12.448 32.8-12.352 45.248 0.192 6.176 6.24 9.28 14.4 9.28 22.528 0 8.224-3.168 16.48-9.472 22.72l-330.816 327.84 329.408 332.479c6.176 6.24 9.28 14.368 9.28 22.528 0 8.256-3.168 16.48-9.472 22.72-12.544 12.448-32.8 12.352-45.248-0.192z"  horiz-adv-x="1024" />

    
    <glyph glyph-name="fold" unicode="&#58880;" d="M406.848 8.672l350.144 353.376c0.512 0.512 0.672 1.216 1.152 1.76 0.128 0.128 0.32 0.16 0.448 0.288 12.416 12.576 12.352 32.832-0.192 45.28l-353.344 350.113c-12.577 12.448-32.8 12.352-45.248-0.192-6.176-6.24-9.28-14.4-9.28-22.528 0-8.224 3.168-16.48 9.472-22.72l330.816-327.84-329.408-332.479c-6.176-6.24-9.28-14.368-9.28-22.528 0-8.256 3.168-16.48 9.472-22.72 12.544-12.448 32.8-12.352 45.248 0.192z"  horiz-adv-x="1024" />

    
    <glyph glyph-name="fold1" unicode="&#58903;" d="M887.328 278.848L533.952 628.992c-0.512 0.512-1.216 0.672-1.76 1.152-0.128 0.128-0.16 0.32-0.288 0.448-12.576 12.416-32.832 12.352-45.28-0.192L136.512 277.056c-12.448-12.576-12.352-32.8 0.192-45.248a31.972 31.972 0 0 1 22.528-9.28c8.224 0 16.48 3.168 22.72 9.472l327.84 330.816 332.48-329.408a31.917 31.917 0 0 1 22.528-9.28c8.256 0 16.48 3.168 22.72 9.472 12.448 12.544 12.352 32.8-0.192 45.248z"  horiz-adv-x="1024" />

    
    <glyph glyph-name="cha" unicode="&#59019;" d="M248 668.6zM807.6 659.7l-38.9 39-255.9-255.2-255.2 255.9-39.1-38.9 255.3-255.9-256-255.3 39-39 255.8 255.2 255.2-255.9 39.1 38.9-255.2 256 255.9 255.2z"  horiz-adv-x="1024" />

    
    <glyph glyph-name="class" unicode="&#58885;" d="M416.679 349.325h-287.074c-31.574 0-57.436-25.839-57.436-57.436v-287.074c0-31.574 25.839-57.436 57.436-57.436h287.074c31.574 0 57.436 25.839 57.436 57.436v287.074c0 31.574-25.839 57.436-57.436 57.436zM416.679 33.546c0-15.775-12.932-28.715-28.715-28.715h-229.673c-15.775 0-28.715 12.932-28.715 28.715v229.673c0 15.775 12.932 28.715 28.715 28.715h229.673c15.775 0 28.715-12.932 28.715-28.715v-229.673zM904.716 349.325h-287.074c-31.574 0-57.436-25.839-57.436-57.436v-287.074c0-31.574 25.839-57.436 57.436-57.436h287.074c31.574 0 57.436 25.839 57.436 57.436v287.074c0 31.574-25.839 57.436-57.436 57.436zM904.716 33.546c0-15.775-12.932-28.715-28.715-28.715h-229.673c-15.775 0-28.715 12.932-28.715 28.715v229.673c0 15.775 12.932 28.715 28.715 28.715h229.673c15.775 0 28.715-12.932 28.715-28.715v-229.673zM904.716 837.351h-287.074c-31.574 0-57.436-25.839-57.436-57.436v-287.074c0-31.574 25.839-57.436 57.436-57.436h287.074c31.574 0 57.436 25.839 57.436 57.436v287.074c0 31.574-25.839 57.436-57.436 57.436zM904.716 521.578c0-15.775-12.932-28.715-28.715-28.715h-229.673c-15.775 0-28.715 12.932-28.715 28.715v229.673c0 15.775 12.932 28.715 28.715 28.715h229.673c15.775 0 28.715-12.932 28.715-28.715v-229.673zM416.679 837.351h-287.074c-31.574 0-57.436-25.839-57.436-57.436v-287.074c0-31.574 25.839-57.436 57.436-57.436h287.074c31.574 0 57.436 25.839 57.436 57.436v287.074c0 31.574-25.839 57.436-57.436 57.436zM416.679 521.578c0-15.775-12.932-28.715-28.715-28.715h-229.673c-15.775 0-28.715 12.932-28.715 28.715v229.673c0 15.775 12.932 28.715 28.715 28.715h229.673c15.775 0 28.715-12.932 28.715-28.715v-229.673z"  horiz-adv-x="1024" />

    
    <glyph glyph-name="gift" unicode="&#59005;" d="M1027.257 373.872c0 0 0 0 0 0-11.397 0-20.637 9.239-20.637 20.637 0 11.397 9.239 20.636 20.637 20.636 0 0 0 0 0 0 11.102-0.384 19.957-9.475 19.957-20.636 0-11.16-8.855-20.253-19.922-20.636zM908.86 13.211h-628.602c-76.793 0-139.045 62.252-139.045 139.045v463.486c0 76.793 62.252 139.045 139.045 139.045h628.602c76.793 0 139.045-62.252 139.045-139.045v-142.66h-5.632c-3.506-3.578-8.388-5.794-13.788-5.794 0 0 0 0-0.001 0h-2.433c-5.408 0.002-10.298 2.218-13.811 5.793l-466.731 0.001c0.65-0.788 1.414-1.46 2.017-2.271 35.758-47.577 35.017-107.968-1.645-134.898-32.003-23.522-80.785-13.743-116.451 20.764v-307.244h438.156c76.793 0 139.045 62.252 139.045 139.045v102.94c0 10.73 8.691 19.443 19.42 19.443h2.433c10.73 0 19.42-8.713 19.42-19.443v-139.162c0-76.793-62.252-139.045-139.045-139.045zM388.875 718.591h-66.625c-76.793 0-139.045-62.252-139.045-139.045v-65.189h83.867c-0.718 0.88-1.553 1.645-2.225 2.572-35.618 48.667-34.877 110.426 1.645 137.979 33.904 25.584 86.51 12.259 122.383-28.667v92.349zM290.802 546.035c14.159-13.51 77.216-10.451 77.216-10.451s0.787 47.113-5.145 62.709c-12.861 33.951-48.69 37.89-70.612 21.367-21.9-16.523-27.555-48.713-1.46-73.624zM292.933 369.122c21.877-16.338 57.611-12.444 70.449 21.135 5.91 15.411 5.145 62.014 5.145 62.014s-62.918 3.036-77.055-10.336c-26.024-24.634-20.393-56.453 1.46-72.814zM388.875 362.1c-35.782-40.069-87.968-53.023-121.642-27.833-36.429 27.231-37.172 88.317-1.645 136.45 0.625 0.835 1.39 1.553 2.063 2.364h-84.447v-284.603c0-76.793 62.252-139.045 139.045-139.045h66.625v312.668zM449.082 391.253c12.931-33.186 48.898-37.033 70.913-20.88 21.993 16.152 27.669 47.623 1.46 71.978-14.206 13.232-77.541 10.22-77.541 10.22s-0.765-46.047 5.168-61.319zM443.612 535.259s63.473-3.036 77.726 10.336c26.257 24.634 20.579 56.453-1.484 72.791-22.062 16.361-58.098 12.444-71.076-21.113-5.956-15.434-5.168-62.014-5.168-62.014zM545.811 653.262c36.754-27.253 37.496-88.317 1.645-136.45-0.65-0.88-1.46-1.599-2.179-2.456h461.354v65.189c0 76.793-62.252 139.045-139.045 139.045h-438.156v-86.046c35.735 34.623 84.4 44.403 116.381 20.718z"  horiz-adv-x="1252" />

    
    <glyph glyph-name="Repairadvice" unicode="&#58890;" d="M140.726857 485.317486h46.8992v-250.148572H140.6976c-43.154286 0-78.175086 46.606629-78.175086 104.155429v41.896228c0 57.519543 35.0208 104.096914 78.175086 104.096915z m733.535086 59.421257C859.896686 738.9184 697.899886 891.816229 500.297143 891.816229c-197.602743 0-359.570286-152.897829-374.286629-347.077486A156.350171 156.350171 0 0 1 0 391.519086v-62.522515a156.408686 156.408686 0 0 1 156.350171-156.350171H250.148571V547.84H189.176686C204.8 705.770057 338.007771 829.293714 500.297143 829.293714c162.260114 0 295.497143-123.523657 311.120457-281.453714H750.445714V172.675657h60.971886c-28.4672-128.2048-142.891886-224.197486-279.844571-224.197486a292.425143 292.425143 0 0 0-62.551772 6.875429v-58.485029c20.333714-3.715657 41.281829-5.617371 62.551772-5.617371 169.457371 0 310.184229 122.587429 338.622171 283.618743 3.423086 19.690057 5.3248 39.701943 5.3248 60.328228h-62.522514v250.148572h46.8992c43.154286 0 78.175086-46.577371 78.175085-104.096914v-41.925486c0-57.519543-35.0208-104.126171-78.175085-104.126172h15.623314c0-20.626286-1.901714-40.638171-5.3248-60.328228A156.350171 156.350171 0 0 1 1000.594286 328.996571v62.522515c0 75.9808-54.418286 139.146971-126.332343 153.219657z"  horiz-adv-x="1024" />

    
    <glyph glyph-name="refresh" unicode="&#58881;" d="M512-87.04c-215.04 0-389.12 174.08-389.12 394.24C122.88 517.12 296.96 691.2 512 691.2c35.84 0 81.92-5.12 133.12-20.48l-15.36-56.32c-46.08 15.36-87.04 25.6-117.76 25.6-184.32 0-337.92-153.6-337.92-337.92 0-184.32 148.48-337.92 337.92-337.92 184.32 0 332.8 148.48 332.8 337.92v25.6h56.32v-25.6c0-215.04-174.08-389.12-389.12-389.12zM522.24 471.04l-40.96 40.96 138.24 133.12-133.12 128 40.96 40.96 163.84-168.96z"  horiz-adv-x="1024" />

    
    <glyph glyph-name="goods" unicode="&#58901;" d="M934.4 608c0 16-16 28.8-32 28.8h-137.6c-25.6 108.8-124.8 188.8-240 188.8h-19.2c-115.2 0-214.4-80-240-188.8h-137.6c-19.2 3.2-32-9.6-32-28.8l-28.8-553.6v-3.2c6.4-67.2 60.8-115.2 124.8-115.2h649.6c64 0 118.4 51.2 121.6 115.2v3.2l-28.8 553.6zM838.4 0h-646.4c-28.8 0-54.4 22.4-57.6 54.4l22.4 521.6h102.4v-134.4c-19.2-9.6-32-32-32-54.4 0-35.2 28.8-64 64-64s64 28.8 64 64c0 22.4-12.8 44.8-32 54.4v140.8c0 102.4 83.2 182.4 182.4 182.4h19.2c102.4 0 182.4-83.2 182.4-182.4v-144c-19.2-9.6-32-32-32-54.4 0-35.2 28.8-64 64-64s64 28.8 64 64c0 22.4-12.8 44.8-32 54.4v137.6h99.2l25.6-521.6c0-32-25.6-54.4-57.6-54.4zM611.2 640h-192c-19.2 0-32-12.8-32-32s12.8-32 32-32h192c19.2 0 32 12.8 32 32s-12.8 32-32 32z"  horiz-adv-x="1024" />

    
    <glyph glyph-name="card-copy" unicode="&#61202;" d="M949.794133 487.0144c25.053867 16.622933 25.736533 29.354667 25.736534 51.5072V693.0432000000001a77.243733 77.243733 0 0 1-77.243734 77.243733H125.713067A77.243733 77.243733 0 0 1 48.469333 693.0432000000001v-154.5216c0-23.074133 1.604267-38.468267 25.736534-51.5072 35.191467-16.384 77.243733-49.493333 77.243733-103.0144 0-69.461333-43.656533-92.0576-75.741867-102.912-22.562133-14.1312-27.272533-37.410133-27.272533-51.6096v-154.5216a77.243733 77.243733 0 0 1 77.243733-77.243733h772.573867a77.243733 77.243733 0 0 1 77.243733 77.243733v154.5216c0 28.125867-6.4512 37.034667-25.736533 51.5072-56.251733 29.013333-77.243733 54.818133-77.243733 103.0144 0.034133 48.196267 19.694933 72.192 77.277866 103.0144m-25.736533-248.081067v-138.24a51.541333 51.541333 0 0 0-51.5072-51.5072H151.4496A51.541333 51.541333 0 0 0 99.9424 100.69333300000005v138.24c59.869867 21.2992 103.0144 77.858133 103.0144 145.066667 0 67.1744-43.144533 123.767467-103.0144 145.066667V667.3066670000001a51.541333 51.541333 0 0 0 51.5072 51.5072h721.1008A51.541333 51.541333 0 0 0 924.0576 667.3066670000001v-138.24c-59.869867-21.265067-103.0144-77.858133-103.0144-145.066667 0-67.1744 43.144533-123.767467 103.0144-145.066667m-270.404267 196.573867h-97.211733l105.540267 113.390933a13.585067 13.585067 0 0 1 0 18.056534l-16.554667 18.090666a10.990933 10.990933 0 0 1-16.520533 0l-117.0432-125.7472-117.077334 125.781334a10.922667 10.922667 0 0 1-16.384 0l-16.384-17.92a13.482667 13.482667 0 0 1 0-17.92l105.847467-113.698134H370.346667a12.868267 12.868267 0 0 1-12.868267-12.868266v-25.770667c0-7.099733 5.768533-12.868267 12.868267-12.868267h115.882666v-51.5072H370.346667a12.868267 12.868267 0 0 1-12.868267-12.868266v-25.736534c0-7.099733 5.768533-12.868267 12.868267-12.868266h115.882666v-90.146134c0-7.099733 5.768533-12.868267 12.868267-12.868266h25.736533a12.868267 12.868267 0 0 1 12.868267 12.868266v90.146134h115.882667a12.868267 12.868267 0 0 1 12.868266 12.868266v25.736534a12.868267 12.868267 0 0 1-12.868266 12.868266h-115.882667V384h115.882667a12.868267 12.868267 0 0 1 12.868266 12.868267v25.770666a12.765867 12.765867 0 0 1-12.8 12.868267m0 0z"  horiz-adv-x="1024" />

    


  </font>
</defs>
</svg>
